<svg xmlns="http://www.w3.org/2000/svg" viewBox="0 0 913.74 365.28"><defs><style>.cls-1{fill:#018fd1;}.cls-2{fill:#fec111;}</style></defs><g id="Calque_2" data-name="Calque 2"><g id="Calque_1-2" data-name="Calque 1"><path class="cls-1" d="M.07,184.89Q.07,100.92,0,17C0,13,.47,11,5.26,10.25a739.65,739.65,0,0,1,83.86-8.7C112.44.49,135.72.27,159,2.78c28.84,3.11,57,8.79,81.52,25.47,27.68,18.8,37.79,45.76,35.15,78.23-1.28,15.74-6.2,30.22-16.28,42.67a67.14,67.14,0,0,1-31.7,21.65c-1.66.56-4.27.22-4.29,3.21s2.61,2.69,4.3,3.18c13.36,3.83,26.14,8.92,37.49,17.09,17.15,12.35,26.85,29.28,29.46,50.11,3.54,28.24-1.16,54.47-20.53,76.55-13.79,15.72-31.66,25.15-51.19,31.68-23.87,8-48.55,11.4-73.61,12.12-46.15,1.32-92.2-.53-138.19-4.27-11-.89-11-.91-11-12.17ZM79.21,254.8c0,13.65.09,27.3-.07,40.95,0,3,.72,3.84,3.78,4.14a477.62,477.62,0,0,0,58.35,1.82c17-.4,33.91-2.39,49.42-10.16,13.4-6.72,21.76-17.14,22.55-32.74.83-16.21-5.76-28.29-19.75-36.41-11.46-6.65-24.11-9.39-37.08-10.69-24.58-2.45-49.24-.65-73.86-1.25-3.18-.08-3.39,1.38-3.38,3.89C79.26,227.83,79.21,241.31,79.21,254.8Zm0-147.45c0,12.32,0,24.64,0,37,0,2.39,0,4.07,3.29,4,21.13-.34,42.29.67,63.4-.81,10.16-.72,20.07-2.94,29.21-7.77,20.43-10.79,26.46-37.94,12.19-56-8-10.07-19.39-14.39-31.45-16.88-24.24-5-48.63-3.84-73-1-3.07.35-3.68,1.75-3.65,4.57C79.29,82.71,79.21,95,79.21,107.35Z"/><path class="cls-1" d="M872.39,365.18c-12.32,0-24.66-.16-37,.09-3.51.07-4.88-1.16-6-4.33-8.64-25.31-17.52-50.54-26.17-75.85-1.1-3.22-2.44-4.56-6.16-4.55q-63.21.25-126.43,0c-3.52,0-5.18.89-6.38,4.41-8.6,25.32-17.55,50.53-26.17,75.84-1.18,3.49-2.86,4.46-6.39,4.43-23.82-.15-47.64-.07-71.46-.08-6,0-6,0-4-5.56Q613.86,203.43,671.45,47.25c4.48-12.16,9.1-24.26,13.4-36.48,1-2.9,2.52-4.3,5.44-4.86,23.9-4.6,48-5,72.09-2.58,6.94.7,15.13,0,20.24,4.1,4.9,3.92,5.37,12.12,7.71,18.48Q851.62,193,912.94,360c1.52,4.14,1.14,5.38-3.57,5.27C897.05,365,884.72,365.18,872.39,365.18ZM780.12,218.52c.16-2.4-1-4.32-1.65-6.32-10.65-32.17-23-63.79-30.8-96.86-4.4-18.61-8.18-37.33-11.49-56.16-.27-1.59-.42-2.94-2.5-3s-2.6,1-2.72,2.75c-.06.82-.33,1.63-.46,2.45-7,42.09-18.51,83-32.94,123.1-4,11.19-7.7,22.51-11.61,34Z"/><path class="cls-1" d="M523.1,298.64c.41,3-1.11,5.1-1.94,7.39-6.71,18.42-13.56,36.79-20.19,55.24-1.08,3-2.57,4-5.76,4-28.16-.13-56.31.08-84.47-.14a116.52,116.52,0,0,1-37.27-6c-28.81-9.94-42.5-31.43-46.28-60.51a163.27,163.27,0,0,1-1-21.43q0-131.68-.09-263.35c0-4.24,1.22-6.12,5.28-7.33,16.73-5,33.78-5.24,51-4.06a94.28,94.28,0,0,1,22,4c3.77,1.2,5.07,3,5.07,7.06-.13,86.62,0,173.23-.21,259.85,0,9.62,4.11,15.76,12.34,19.74a57.27,57.27,0,0,0,25.11,5.59q35.49.08,71,0Z"/><path class="cls-2" d="M516.21,140c21.26-6.46,38.69-16.65,43.59-41.2-9.91,5.4-19.92,8.32-30.73,7.77a47.07,47.07,0,0,1-14.58-3,4.16,4.16,0,0,1-3-4.48q.12-43.44,0-86.9c0-3.4,2.26-4.2,4.52-5.08a91.43,91.43,0,0,1,26.71-5.77c24.09-1.8,48.2-2.57,72,2.45C630,7,629.93,7.25,624.65,21.58q-15.15,41.16-30.38,82.28c-5.1,13.71-12.5,25.78-25.85,33C551.64,146,534.15,145.37,516.21,140Z"/></g></g></svg>