<svg xmlns="http://www.w3.org/2000/svg" viewBox="0 0 321.05 369.13"><defs><style>.cls-1{fill:#fff;}</style></defs><g id="Calque_2" data-name="Calque 2"><g id="Calque_1-2" data-name="Calque 1"><path class="cls-1" d="M0,0V369.13H321.05V0ZM145.14,357.77A1216.08,1216.08,0,0,1,20,352.09V21.26a650.8,650.8,0,0,1,113-9.93c86.78,0,149.36,25.08,149.36,91.81,0,36.92-19.72,63-50,71l0,3.79c41.87,10.88,68.62,33.13,68.62,79.51C301.05,331.26,232.43,357.77,145.14,357.77Z"/><path class="cls-1" d="M205.14,112.15C205.14,83.28,178.89,71,135,71a231.3,231.3,0,0,0-39.86,2.83v77.63H145.6C182.94,151.44,205.14,138.66,205.14,112.15Z"/><path class="cls-1" d="M146.12,210.58h-51l0,84.71a485.06,485.06,0,0,0,50,2.37h0c48.95,0,77.7-13.26,77.7-43.54S193.54,210.58,146.12,210.58Z"/></g></g></svg>